<svg viewBox="0 0 24 24" fill="none" xmlns="http://www.w3.org/2000/svg">
<path fill-rule="evenodd" clip-rule="evenodd" d="M14.3996 18.2118L14.3996 16.9607C15.7676 16.6831 16.7996 15.4809 16.7996 14.0416C16.7996 12.3997 15.4532 11.0628 13.7996 11.0628H12.5996C12.2684 11.0628 11.9996 10.7959 11.9996 10.4671C11.9996 10.1382 12.2684 9.87134 12.5996 9.87134H16.7996V7.48836H14.3996V6.29687L11.9996 6.29688V7.54794C10.6316 7.82556 9.59961 9.02777 9.59961 10.4671C9.59961 12.109 10.946 13.4458 12.5996 13.4458H13.7996C14.1308 13.4458 14.3996 13.7127 14.3996 14.0416C14.3996 14.3704 14.1308 14.6373 13.7996 14.6373H9.59961V17.0203H11.9996V18.2118H14.3996Z" fill="currentColor"/>
<path fill-rule="evenodd" clip-rule="evenodd" d="M13.2 1.53125C7.2456 1.53125 2.4 6.34248 2.4 12.2547H0L3.6 17.0206L7.2 12.2547H4.8C4.8 7.65551 8.568 3.91423 13.2 3.91423C17.832 3.91423 21.6 7.65551 21.6 12.2547C21.6 16.8538 17.832 20.5951 13.2 20.5951V22.9781C19.1544 22.9781 24 18.1668 24 12.2547C24 6.34248 19.1544 1.53125 13.2 1.53125Z" fill="currentColor"/>
</svg>
