<svg viewBox="0 0 24 24" fill="currentColor" xmlns="http://www.w3.org/2000/svg">
<path d="M14.9999 18.999H12.9999C11.8969 18.999 10.9999 18.103 10.9999 16.999V13.999H8.99994V16.999C8.99994 18.103 8.10295 18.999 6.99995 18.999H4.99995C3.89694 18.999 2.99995 18.103 2.99995 16.999V10.999H0.999945C0.595945 10.999 0.230945 10.756 0.0759451 10.382C-0.0790549 10.009 0.0069451 9.579 0.292945 9.293L9.29294 0.293004C9.68394 -0.0969965 10.3159 -0.0969965 10.7069 0.293004L19.7069 9.293C19.9929 9.579 20.0789 10.009 19.9239 10.382C19.7689 10.756 19.4039 10.999 18.9999 10.999H16.9999V16.999C16.9999 18.102 16.1029 18.999 14.9999 18.999ZM7.99994 11.999H11.9999C12.5519 11.999 12.9999 12.448 12.9999 12.999V16.999H15.0009L14.9999 9.999C14.9999 9.448 15.4479 8.999 15.9999 8.999H16.5859L9.99994 2.414L3.41395 8.999H3.99995C4.55195 8.999 4.99995 9.448 4.99995 9.999V16.999H6.99995V12.999C6.99995 12.447 7.44694 11.999 7.99994 11.999Z" fill="currentColor"/>
</svg>
