<svg viewBox="0 0 32 32" xmlns="http://www.w3.org/2000/svg">
<path fill-rule="evenodd" clip-rule="evenodd" d="M24.2669 27.9998C24.0224 27.9998 23.7766 27.9324 23.5638 27.7977L16.6667 23.4319L9.76949 27.7977C9.32868 28.0767 8.7498 28.0671 8.31912 27.7688C7.89098 27.4718 7.7035 26.9522 7.84918 26.4675L10.1774 18.7281L4.37082 13.2149C4.00854 12.8721 3.90087 12.3537 4.09595 11.9039C4.29102 11.4553 4.75463 11.1618 5.26638 11.1618H12.0837L15.5342 4.61068C15.9636 3.79644 17.371 3.79644 17.8004 4.61068L21.2509 11.1618H28.067C28.5787 11.1618 29.0423 11.4553 29.2374 11.9039C29.4325 12.3537 29.3248 12.8721 28.9625 13.2149L23.156 18.7281L25.4842 26.4675C25.6298 26.9522 25.4424 27.4718 25.0142 27.7688C24.7913 27.9228 24.5291 27.9998 24.2669 27.9998Z"/>
</svg>